<svg width="56" height="12" viewBox="0 0 56 12" fill="none" xmlns="http://www.w3.org/2000/svg">
<path d="M1.632 0.599999H5.652C5.86 0.599999 6.032 0.668 6.168 0.804C6.312 0.931999 6.384 1.1 6.384 1.308C6.384 1.508 6.312 1.672 6.168 1.8C6.032 1.92 5.86 1.98 5.652 1.98H2.292L2.4 1.776V4.116L2.304 4.02H5.112C5.32 4.02 5.492 4.088 5.628 4.224C5.772 4.352 5.844 4.52 5.844 4.728C5.844 4.928 5.772 5.092 5.628 5.22C5.492 5.34 5.32 5.4 5.112 5.4H2.34L2.4 5.304V7.728L2.304 7.62H5.652C5.86 7.62 6.032 7.692 6.168 7.836C6.312 7.972 6.384 8.132 6.384 8.316C6.384 8.516 6.312 8.68 6.168 8.808C6.032 8.936 5.86 9 5.652 9H1.632C1.424 9 1.248 8.932 1.104 8.796C0.968 8.652 0.9 8.476 0.9 8.268V1.332C0.9 1.124 0.968 0.952 1.104 0.816C1.248 0.671999 1.424 0.599999 1.632 0.599999ZM12.9032 2.46C13.1112 2.46 13.2832 2.528 13.4192 2.664C13.5552 2.8 13.6232 2.976 13.6232 3.192V8.268C13.6232 8.476 13.5552 8.652 13.4192 8.796C13.2832 8.932 13.1112 9 12.9032 9C12.6952 9 12.5232 8.932 12.3872 8.796C12.2512 8.652 12.1832 8.476 12.1832 8.268V7.68L12.4472 7.788C12.4472 7.892 12.3912 8.02 12.2792 8.172C12.1672 8.316 12.0152 8.46 11.8232 8.604C11.6312 8.748 11.4032 8.872 11.1392 8.976C10.8832 9.072 10.6032 9.12 10.2992 9.12C9.74719 9.12 9.24719 8.98 8.79919 8.7C8.35119 8.412 7.99519 8.02 7.73119 7.524C7.47519 7.02 7.34719 6.444 7.34719 5.796C7.34719 5.14 7.47519 4.564 7.73119 4.068C7.99519 3.564 8.34719 3.172 8.78719 2.892C9.22719 2.604 9.71519 2.46 10.2512 2.46C10.5952 2.46 10.9112 2.512 11.1992 2.616C11.4872 2.72 11.7352 2.852 11.9432 3.012C12.1592 3.172 12.3232 3.336 12.4352 3.504C12.5552 3.664 12.6152 3.8 12.6152 3.912L12.1832 4.068V3.192C12.1832 2.984 12.2512 2.812 12.3872 2.676C12.5232 2.532 12.6952 2.46 12.9032 2.46ZM10.4792 7.8C10.8312 7.8 11.1392 7.712 11.4032 7.536C11.6672 7.36 11.8712 7.12 12.0152 6.816C12.1672 6.512 12.2432 6.172 12.2432 5.796C12.2432 5.412 12.1672 5.068 12.0152 4.764C11.8712 4.46 11.6672 4.22 11.4032 4.044C11.1392 3.868 10.8312 3.78 10.4792 3.78C10.1352 3.78 9.83119 3.868 9.56719 4.044C9.30319 4.22 9.09519 4.46 8.94319 4.764C8.79919 5.068 8.72719 5.412 8.72719 5.796C8.72719 6.172 8.79919 6.512 8.94319 6.816C9.09519 7.12 9.30319 7.36 9.56719 7.536C9.83119 7.712 10.1352 7.8 10.4792 7.8ZM14.8103 8.004C14.7303 7.892 14.6943 7.748 14.7023 7.572C14.7103 7.396 14.8143 7.244 15.0143 7.116C15.1423 7.036 15.2783 7.004 15.4223 7.02C15.5663 7.028 15.7063 7.1 15.8423 7.236C16.0743 7.468 16.3183 7.648 16.5743 7.776C16.8303 7.904 17.1503 7.968 17.5343 7.968C17.6543 7.96 17.7863 7.944 17.9303 7.92C18.0743 7.888 18.1983 7.824 18.3023 7.728C18.4143 7.624 18.4703 7.468 18.4703 7.26C18.4703 7.084 18.4103 6.944 18.2903 6.84C18.1703 6.736 18.0103 6.648 17.8103 6.576C17.6183 6.504 17.4023 6.436 17.1623 6.372C16.9143 6.3 16.6583 6.22 16.3943 6.132C16.1383 6.044 15.9023 5.932 15.6863 5.796C15.4703 5.652 15.2943 5.464 15.1583 5.232C15.0223 5 14.9543 4.708 14.9543 4.356C14.9543 3.956 15.0663 3.616 15.2903 3.336C15.5143 3.056 15.8023 2.84 16.1543 2.688C16.5143 2.536 16.8903 2.46 17.2823 2.46C17.5303 2.46 17.7903 2.492 18.0623 2.556C18.3343 2.612 18.5943 2.708 18.8423 2.844C19.0903 2.972 19.2983 3.144 19.4663 3.36C19.5543 3.48 19.6063 3.624 19.6223 3.792C19.6383 3.96 19.5623 4.112 19.3943 4.248C19.2743 4.344 19.1343 4.388 18.9743 4.38C18.8143 4.364 18.6823 4.308 18.5783 4.212C18.4423 4.036 18.2583 3.896 18.0263 3.792C17.8023 3.688 17.5423 3.636 17.2463 3.636C17.1263 3.636 16.9943 3.652 16.8503 3.684C16.7143 3.708 16.5943 3.768 16.4903 3.864C16.3863 3.952 16.3343 4.096 16.3343 4.296C16.3343 4.48 16.3943 4.628 16.5143 4.74C16.6343 4.844 16.7943 4.932 16.9943 5.004C17.2023 5.068 17.4223 5.132 17.6543 5.196C17.8943 5.26 18.1383 5.336 18.3863 5.424C18.6343 5.512 18.8623 5.628 19.0703 5.772C19.2783 5.916 19.4463 6.104 19.5743 6.336C19.7023 6.56 19.7663 6.848 19.7663 7.2C19.7663 7.608 19.6463 7.956 19.4063 8.244C19.1663 8.532 18.8663 8.752 18.5063 8.904C18.1463 9.048 17.7783 9.12 17.4023 9.12C16.9303 9.12 16.4583 9.04 15.9863 8.88C15.5143 8.712 15.1223 8.42 14.8103 8.004ZM25.7354 2.58C25.9434 2.58 26.1154 2.652 26.2514 2.796C26.3874 2.932 26.4554 3.104 26.4554 3.312V8.412C26.4554 9.148 26.3154 9.732 26.0354 10.164C25.7634 10.604 25.3954 10.92 24.9314 11.112C24.4674 11.304 23.9474 11.4 23.3714 11.4C23.1154 11.4 22.8434 11.38 22.5554 11.34C22.2674 11.3 22.0314 11.24 21.8474 11.16C21.6074 11.056 21.4394 10.924 21.3434 10.764C21.2554 10.612 21.2394 10.448 21.2954 10.272C21.3674 10.04 21.4834 9.88 21.6434 9.792C21.8034 9.712 21.9714 9.704 22.1474 9.768C22.2754 9.808 22.4434 9.868 22.6514 9.948C22.8594 10.036 23.0994 10.08 23.3714 10.08C23.7394 10.08 24.0434 10.028 24.2834 9.924C24.5314 9.828 24.7154 9.66 24.8354 9.42C24.9634 9.188 25.0274 8.868 25.0274 8.46V7.656L25.2794 7.944C25.1434 8.208 24.9714 8.428 24.7634 8.604C24.5634 8.772 24.3234 8.9 24.0434 8.988C23.7634 9.076 23.4434 9.12 23.0834 9.12C22.6594 9.12 22.2874 9.024 21.9674 8.832C21.6554 8.632 21.4114 8.36 21.2354 8.016C21.0594 7.664 20.9714 7.264 20.9714 6.816V3.312C20.9714 3.104 21.0394 2.932 21.1754 2.796C21.3114 2.652 21.4834 2.58 21.6914 2.58C21.8994 2.58 22.0714 2.652 22.2074 2.796C22.3434 2.932 22.4114 3.104 22.4114 3.312V6.384C22.4114 6.904 22.5234 7.272 22.7474 7.488C22.9794 7.696 23.2994 7.8 23.7074 7.8C23.9874 7.8 24.2234 7.748 24.4154 7.644C24.6074 7.532 24.7554 7.372 24.8594 7.164C24.9634 6.948 25.0154 6.688 25.0154 6.384V3.312C25.0154 3.104 25.0834 2.932 25.2194 2.796C25.3554 2.652 25.5274 2.58 25.7354 2.58Z" fill="white"/>
<path d="M28.8904 0.588C29.0024 0.588 29.1184 0.62 29.2384 0.684C29.3664 0.74 29.4624 0.816 29.5264 0.912L32.4424 5.4L31.8424 5.376L34.8304 0.912C34.9824 0.696 35.1784 0.588 35.4184 0.588C35.6104 0.588 35.7824 0.656 35.9344 0.792C36.0864 0.927999 36.1624 1.104 36.1624 1.32V8.268C36.1624 8.476 36.0944 8.652 35.9584 8.796C35.8224 8.932 35.6424 9 35.4184 9C35.1944 9 35.0104 8.932 34.8664 8.796C34.7304 8.652 34.6624 8.476 34.6624 8.268V2.616L35.1304 2.724L32.6824 6.456C32.6104 6.544 32.5184 6.62 32.4064 6.684C32.3024 6.748 32.1944 6.776 32.0824 6.768C31.9784 6.776 31.8704 6.748 31.7584 6.684C31.6544 6.62 31.5664 6.544 31.4944 6.456L29.2024 2.832L29.5144 2.196V8.268C29.5144 8.476 29.4504 8.652 29.3224 8.796C29.1944 8.932 29.0264 9 28.8184 9C28.6184 9 28.4544 8.932 28.3264 8.796C28.1984 8.652 28.1344 8.476 28.1344 8.268V1.32C28.1344 1.12 28.2064 0.948 28.3504 0.804C28.5024 0.66 28.6824 0.588 28.8904 0.588ZM40.8704 9.12C40.1904 9.12 39.5984 8.98 39.0944 8.7C38.5984 8.412 38.2144 8.024 37.9424 7.536C37.6784 7.048 37.5464 6.496 37.5464 5.88C37.5464 5.16 37.6904 4.548 37.9784 4.044C38.2744 3.532 38.6584 3.14 39.1304 2.868C39.6024 2.596 40.1024 2.46 40.6304 2.46C41.0384 2.46 41.4224 2.544 41.7824 2.712C42.1504 2.88 42.4744 3.112 42.7544 3.408C43.0344 3.696 43.2544 4.032 43.4144 4.416C43.5824 4.8 43.6664 5.208 43.6664 5.64C43.6584 5.832 43.5824 5.988 43.4384 6.108C43.2944 6.228 43.1264 6.288 42.9344 6.288H38.3504L37.9904 5.088H42.3944L42.1304 5.328V5.004C42.1144 4.772 42.0304 4.564 41.8784 4.38C41.7344 4.196 41.5504 4.052 41.3264 3.948C41.1104 3.836 40.8784 3.78 40.6304 3.78C40.3904 3.78 40.1664 3.812 39.9584 3.876C39.7504 3.94 39.5704 4.048 39.4184 4.2C39.2664 4.352 39.1464 4.556 39.0584 4.812C38.9704 5.068 38.9264 5.392 38.9264 5.784C38.9264 6.216 39.0144 6.584 39.1904 6.888C39.3744 7.184 39.6064 7.412 39.8864 7.572C40.1744 7.724 40.4784 7.8 40.7984 7.8C41.0944 7.8 41.3304 7.776 41.5064 7.728C41.6824 7.68 41.8224 7.624 41.9264 7.56C42.0384 7.488 42.1384 7.428 42.2264 7.38C42.3704 7.308 42.5064 7.272 42.6344 7.272C42.8104 7.272 42.9544 7.332 43.0664 7.452C43.1864 7.572 43.2464 7.712 43.2464 7.872C43.2464 8.088 43.1344 8.284 42.9104 8.46C42.7024 8.636 42.4104 8.792 42.0344 8.928C41.6584 9.056 41.2704 9.12 40.8704 9.12ZM44.5525 8.004C44.4725 7.892 44.4365 7.748 44.4445 7.572C44.4525 7.396 44.5565 7.244 44.7565 7.116C44.8845 7.036 45.0205 7.004 45.1645 7.02C45.3085 7.028 45.4485 7.1 45.5845 7.236C45.8165 7.468 46.0605 7.648 46.3165 7.776C46.5725 7.904 46.8925 7.968 47.2765 7.968C47.3965 7.96 47.5285 7.944 47.6725 7.92C47.8165 7.888 47.9405 7.824 48.0445 7.728C48.1565 7.624 48.2125 7.468 48.2125 7.26C48.2125 7.084 48.1525 6.944 48.0325 6.84C47.9125 6.736 47.7525 6.648 47.5525 6.576C47.3605 6.504 47.1445 6.436 46.9045 6.372C46.6565 6.3 46.4005 6.22 46.1365 6.132C45.8805 6.044 45.6445 5.932 45.4285 5.796C45.2125 5.652 45.0365 5.464 44.9005 5.232C44.7645 5 44.6965 4.708 44.6965 4.356C44.6965 3.956 44.8085 3.616 45.0325 3.336C45.2565 3.056 45.5445 2.84 45.8965 2.688C46.2565 2.536 46.6325 2.46 47.0245 2.46C47.2725 2.46 47.5325 2.492 47.8045 2.556C48.0765 2.612 48.3365 2.708 48.5845 2.844C48.8325 2.972 49.0405 3.144 49.2085 3.36C49.2965 3.48 49.3485 3.624 49.3645 3.792C49.3805 3.96 49.3045 4.112 49.1365 4.248C49.0165 4.344 48.8765 4.388 48.7165 4.38C48.5565 4.364 48.4245 4.308 48.3205 4.212C48.1845 4.036 48.0005 3.896 47.7685 3.792C47.5445 3.688 47.2845 3.636 46.9885 3.636C46.8685 3.636 46.7365 3.652 46.5925 3.684C46.4565 3.708 46.3365 3.768 46.2325 3.864C46.1285 3.952 46.0765 4.096 46.0765 4.296C46.0765 4.48 46.1365 4.628 46.2565 4.74C46.3765 4.844 46.5365 4.932 46.7365 5.004C46.9445 5.068 47.1645 5.132 47.3965 5.196C47.6365 5.26 47.8805 5.336 48.1285 5.424C48.3765 5.512 48.6045 5.628 48.8125 5.772C49.0205 5.916 49.1885 6.104 49.3165 6.336C49.4445 6.56 49.5085 6.848 49.5085 7.2C49.5085 7.608 49.3885 7.956 49.1485 8.244C48.9085 8.532 48.6085 8.752 48.2485 8.904C47.8885 9.048 47.5205 9.12 47.1445 9.12C46.6725 9.12 46.2005 9.04 45.7285 8.88C45.2565 8.712 44.8645 8.42 44.5525 8.004ZM50.3416 8.004C50.2616 7.892 50.2256 7.748 50.2336 7.572C50.2416 7.396 50.3456 7.244 50.5456 7.116C50.6736 7.036 50.8096 7.004 50.9536 7.02C51.0976 7.028 51.2376 7.1 51.3736 7.236C51.6056 7.468 51.8496 7.648 52.1056 7.776C52.3616 7.904 52.6816 7.968 53.0656 7.968C53.1856 7.96 53.3176 7.944 53.4616 7.92C53.6056 7.888 53.7296 7.824 53.8336 7.728C53.9456 7.624 54.0016 7.468 54.0016 7.26C54.0016 7.084 53.9416 6.944 53.8216 6.84C53.7016 6.736 53.5416 6.648 53.3416 6.576C53.1496 6.504 52.9336 6.436 52.6936 6.372C52.4456 6.3 52.1896 6.22 51.9256 6.132C51.6696 6.044 51.4336 5.932 51.2176 5.796C51.0016 5.652 50.8256 5.464 50.6896 5.232C50.5536 5 50.4856 4.708 50.4856 4.356C50.4856 3.956 50.5976 3.616 50.8216 3.336C51.0456 3.056 51.3336 2.84 51.6856 2.688C52.0456 2.536 52.4216 2.46 52.8136 2.46C53.0616 2.46 53.3216 2.492 53.5936 2.556C53.8656 2.612 54.1256 2.708 54.3736 2.844C54.6216 2.972 54.8296 3.144 54.9976 3.36C55.0856 3.48 55.1376 3.624 55.1536 3.792C55.1696 3.96 55.0936 4.112 54.9256 4.248C54.8056 4.344 54.6656 4.388 54.5056 4.38C54.3456 4.364 54.2136 4.308 54.1096 4.212C53.9736 4.036 53.7896 3.896 53.5576 3.792C53.3336 3.688 53.0736 3.636 52.7776 3.636C52.6576 3.636 52.5256 3.652 52.3816 3.684C52.2456 3.708 52.1256 3.768 52.0216 3.864C51.9176 3.952 51.8656 4.096 51.8656 4.296C51.8656 4.48 51.9256 4.628 52.0456 4.74C52.1656 4.844 52.3256 4.932 52.5256 5.004C52.7336 5.068 52.9536 5.132 53.1856 5.196C53.4256 5.26 53.6696 5.336 53.9176 5.424C54.1656 5.512 54.3936 5.628 54.6016 5.772C54.8096 5.916 54.9776 6.104 55.1056 6.336C55.2336 6.56 55.2976 6.848 55.2976 7.2C55.2976 7.608 55.1776 7.956 54.9376 8.244C54.6976 8.532 54.3976 8.752 54.0376 8.904C53.6776 9.048 53.3096 9.12 52.9336 9.12C52.4616 9.12 51.9896 9.04 51.5176 8.88C51.0456 8.712 50.6536 8.42 50.3416 8.004Z" fill="#FFA51F"/>
</svg>
