<svg width="165" height="22" viewBox="0 0 165 22" fill="none" xmlns="http://www.w3.org/2000/svg">
<g clip-path="url(#clip0_51_54)">
<path d="M3.90554 4.90909V18H1.13778V4.90909H3.90554ZM6.13157 18V8.18182H8.72674V9.91406H8.8418C9.04634 9.33878 9.38725 8.88494 9.86452 8.55256C10.3418 8.22017 10.9128 8.05398 11.5776 8.05398C12.2509 8.05398 12.824 8.2223 13.2971 8.55895C13.7701 8.89133 14.0854 9.34304 14.2431 9.91406H14.3453C14.5456 9.35156 14.9078 8.90199 15.432 8.56534C15.9604 8.22443 16.5847 8.05398 17.3049 8.05398C18.2211 8.05398 18.9647 8.34588 19.5357 8.92969C20.111 9.50923 20.3986 10.3317 20.3986 11.397V18H17.682V11.9339C17.682 11.3885 17.5371 10.9794 17.2473 10.7067C16.9576 10.4339 16.5953 10.2976 16.1607 10.2976C15.6664 10.2976 15.2807 10.4553 15.0037 10.7706C14.7267 11.0817 14.5882 11.4929 14.5882 12.0043V18H11.9483V11.8764C11.9483 11.3949 11.8098 11.0114 11.5328 10.7259C11.2601 10.4403 10.9 10.2976 10.4526 10.2976C10.15 10.2976 9.87731 10.3743 9.63441 10.5277C9.39577 10.6768 9.20614 10.8878 9.06552 11.1605C8.92489 11.429 8.85458 11.7443 8.85458 12.1065V18H6.13157ZM22.5495 21.6818V8.18182H25.2342V9.83097H25.3556C25.475 9.56676 25.6475 9.2983 25.8734 9.02557C26.1035 8.74858 26.4018 8.51847 26.7683 8.33523C27.139 8.14773 27.5993 8.05398 28.149 8.05398C28.8649 8.05398 29.5254 8.24148 30.1305 8.61648C30.7356 8.98722 31.2193 9.54759 31.5815 10.2976C31.9437 11.0433 32.1248 11.9787 32.1248 13.1037C32.1248 14.1989 31.948 15.1236 31.5943 15.8778C31.2449 16.6278 30.7676 17.1967 30.1625 17.5845C29.5616 17.968 28.8883 18.1598 28.1426 18.1598C27.6142 18.1598 27.1646 18.0724 26.7939 17.8977C26.4274 17.723 26.127 17.5036 25.8926 17.2393C25.6582 16.9709 25.4792 16.7003 25.3556 16.4276H25.2725V21.6818H22.5495ZM25.215 13.0909C25.215 13.6747 25.296 14.1839 25.4579 14.6186C25.6199 15.0533 25.8542 15.392 26.161 15.6349C26.4679 15.8736 26.8407 15.9929 27.2797 15.9929C27.7228 15.9929 28.0978 15.8714 28.4047 15.6286C28.7115 15.3814 28.9437 15.0405 29.1014 14.6058C29.2633 14.1669 29.3443 13.6619 29.3443 13.0909C29.3443 12.5241 29.2654 12.0256 29.1078 11.5952C28.9501 11.1648 28.7179 10.8281 28.411 10.5852C28.1042 10.3423 27.7271 10.2209 27.2797 10.2209C26.8365 10.2209 26.4615 10.3381 26.1547 10.5724C25.8521 10.8068 25.6199 11.1392 25.4579 11.5696C25.296 12 25.215 12.5071 25.215 13.0909ZM38.4146 18.1918C37.4047 18.1918 36.5353 17.9872 35.8066 17.5781C35.0822 17.1648 34.524 16.581 34.1319 15.8267C33.7399 15.0682 33.5439 14.1712 33.5439 13.1357C33.5439 12.1257 33.7399 11.2393 34.1319 10.4766C34.524 9.71378 35.0758 9.11932 35.7875 8.69318C36.5034 8.26705 37.3429 8.05398 38.3059 8.05398C38.9537 8.05398 39.5566 8.15838 40.1149 8.36719C40.6774 8.57173 41.1674 8.88068 41.5851 9.29403C42.0069 9.70739 42.3351 10.2273 42.5694 10.8537C42.8038 11.4759 42.921 12.2045 42.921 13.0398V13.7876H34.6305V12.1001H40.3578C40.3578 11.7081 40.2726 11.3608 40.1021 11.0582C39.9316 10.7557 39.6951 10.5192 39.3926 10.3487C39.0943 10.174 38.747 10.0866 38.3507 10.0866C37.9373 10.0866 37.5708 10.1825 37.2512 10.3743C36.9359 10.5618 36.6887 10.8153 36.5098 11.1349C36.3308 11.4503 36.2392 11.8018 36.2349 12.1896V13.794C36.2349 14.2798 36.3244 14.6996 36.5034 15.0533C36.6866 15.407 36.9444 15.6797 37.2768 15.8714C37.6092 16.0632 38.0034 16.1591 38.4593 16.1591C38.7619 16.1591 39.0389 16.1165 39.2903 16.0312C39.5417 15.946 39.7569 15.8182 39.9359 15.6477C40.1149 15.4773 40.2512 15.2685 40.345 15.0213L42.8635 15.1875C42.7356 15.7926 42.4735 16.321 42.0772 16.7727C41.6852 17.2202 41.1781 17.5696 40.5559 17.821C39.938 18.0682 39.2243 18.1918 38.4146 18.1918ZM44.698 18V8.18182H47.3379V9.89489H47.4402C47.6191 9.28551 47.9196 8.82528 48.3414 8.5142C48.7633 8.19886 49.2491 8.04119 49.7988 8.04119C49.9352 8.04119 50.0822 8.04972 50.2399 8.06676C50.3975 8.08381 50.536 8.10724 50.6554 8.13707V10.5533C50.5275 10.5149 50.3507 10.4808 50.1248 10.451C49.899 10.4212 49.6923 10.4062 49.5048 10.4062C49.1042 10.4062 48.7463 10.4936 48.4309 10.6683C48.1199 10.8388 47.8727 11.0774 47.6895 11.3842C47.5105 11.6911 47.421 12.0447 47.421 12.4453V18H44.698ZM52.0632 18V8.18182H54.7862V18H52.0632ZM53.4311 6.91619C53.0263 6.91619 52.679 6.78196 52.3892 6.51349C52.1037 6.24077 51.9609 5.91477 51.9609 5.53551C51.9609 5.16051 52.1037 4.83878 52.3892 4.57031C52.679 4.29758 53.0263 4.16122 53.4311 4.16122C53.8359 4.16122 54.1811 4.29758 54.4666 4.57031C54.7564 4.83878 54.9013 5.16051 54.9013 5.53551C54.9013 5.91477 54.7564 6.24077 54.4666 6.51349C54.1811 6.78196 53.8359 6.91619 53.4311 6.91619ZM63.2637 13.8196V8.18182H65.9867V18H63.3723V16.2166H63.2701C63.0485 16.7919 62.6799 17.2543 62.1642 17.6037C61.6529 17.9531 61.0286 18.1278 60.2914 18.1278C59.6351 18.1278 59.0577 17.9787 58.5591 17.6804C58.0605 17.3821 57.6706 16.9581 57.3894 16.4084C57.1124 15.8587 56.9718 15.2003 56.9675 14.4332V8.18182H59.6905V13.9474C59.6948 14.527 59.8503 14.9851 60.1571 15.3217C60.464 15.6584 60.8752 15.8267 61.3908 15.8267C61.7189 15.8267 62.0257 15.7521 62.3113 15.603C62.5968 15.4496 62.8269 15.2237 63.0016 14.9254C63.1806 14.6271 63.2679 14.2585 63.2637 13.8196ZM68.1648 18V8.18182H70.7599V9.91406H70.875C71.0795 9.33878 71.4205 8.88494 71.8977 8.55256C72.375 8.22017 72.946 8.05398 73.6108 8.05398C74.2841 8.05398 74.8572 8.2223 75.3303 8.55895C75.8033 8.89133 76.1186 9.34304 76.2763 9.91406H76.3786C76.5788 9.35156 76.9411 8.90199 77.4652 8.56534C77.9936 8.22443 78.6179 8.05398 79.3381 8.05398C80.2543 8.05398 80.9979 8.34588 81.5689 8.92969C82.1442 9.50923 82.4318 10.3317 82.4318 11.397V18H79.7152V11.9339C79.7152 11.3885 79.5703 10.9794 79.2805 10.7067C78.9908 10.4339 78.6286 10.2976 78.1939 10.2976C77.6996 10.2976 77.3139 10.4553 77.0369 10.7706C76.7599 11.0817 76.6214 11.4929 76.6214 12.0043V18H73.9815V11.8764C73.9815 11.3949 73.843 11.0114 73.5661 10.7259C73.2933 10.4403 72.9332 10.2976 72.4858 10.2976C72.1832 10.2976 71.9105 10.3743 71.6676 10.5277C71.429 10.6768 71.2393 10.8878 71.0987 11.1605C70.9581 11.429 70.8878 11.7443 70.8878 12.1065V18H68.1648Z" fill="#1EA1B3"/>
<path d="M88.7999 18V4.90909H97.6209V7.19105H91.5676V10.3104H97.1671V12.5923H91.5676V15.718H97.6465V18H88.7999ZM103.388 18.1598C102.642 18.1598 101.967 17.968 101.362 17.5845C100.761 17.1967 100.284 16.6278 99.93 15.8778C99.5806 15.1236 99.4059 14.1989 99.4059 13.1037C99.4059 11.9787 99.587 11.0433 99.9492 10.2976C100.311 9.54759 100.793 8.98722 101.394 8.61648C101.999 8.24148 102.662 8.05398 103.382 8.05398C103.931 8.05398 104.39 8.14773 104.756 8.33523C105.127 8.51847 105.425 8.74858 105.651 9.02557C105.881 9.2983 106.056 9.56676 106.175 9.83097H106.258V4.90909H108.975V18H106.29V16.4276H106.175C106.047 16.7003 105.866 16.9709 105.632 17.2393C105.402 17.5036 105.101 17.723 104.73 17.8977C104.364 18.0724 103.917 18.1598 103.388 18.1598ZM104.251 15.9929C104.69 15.9929 105.061 15.8736 105.363 15.6349C105.67 15.392 105.904 15.0533 106.066 14.6186C106.233 14.1839 106.316 13.6747 106.316 13.0909C106.316 12.5071 106.235 12 106.073 11.5696C105.911 11.1392 105.676 10.8068 105.37 10.5724C105.063 10.3381 104.69 10.2209 104.251 10.2209C103.804 10.2209 103.426 10.3423 103.12 10.5852C102.813 10.8281 102.581 11.1648 102.423 11.5952C102.265 12.0256 102.186 12.5241 102.186 13.0909C102.186 13.6619 102.265 14.1669 102.423 14.6058C102.585 15.0405 102.817 15.3814 103.12 15.6286C103.426 15.8714 103.804 15.9929 104.251 15.9929ZM117.51 13.8196V8.18182H120.233V18H117.618V16.2166H117.516C117.295 16.7919 116.926 17.2543 116.41 17.6037C115.899 17.9531 115.275 18.1278 114.537 18.1278C113.881 18.1278 113.304 17.9787 112.805 17.6804C112.307 17.3821 111.917 16.9581 111.635 16.4084C111.358 15.8587 111.218 15.2003 111.214 14.4332V8.18182H113.937V13.9474C113.941 14.527 114.096 14.9851 114.403 15.3217C114.71 15.6584 115.121 15.8267 115.637 15.8267C115.965 15.8267 116.272 15.7521 116.557 15.603C116.843 15.4496 117.073 15.2237 117.248 14.9254C117.427 14.6271 117.514 14.2585 117.51 13.8196ZM127.633 8.18182V10.2273H121.721V8.18182H127.633ZM123.063 5.82955H125.786V14.983C125.786 15.2344 125.824 15.4304 125.901 15.571C125.978 15.7074 126.084 15.8033 126.221 15.8587C126.361 15.9141 126.523 15.9418 126.706 15.9418C126.834 15.9418 126.962 15.9311 127.09 15.9098C127.218 15.8842 127.316 15.8651 127.384 15.8523L127.812 17.8786C127.676 17.9212 127.484 17.9702 127.237 18.0256C126.99 18.0852 126.689 18.1214 126.336 18.1342C125.679 18.1598 125.104 18.0724 124.61 17.8722C124.12 17.6719 123.738 17.3608 123.466 16.9389C123.193 16.517 123.059 15.9844 123.063 15.3409V5.82955ZM133.776 18.1918C132.766 18.1918 131.897 17.9872 131.168 17.5781C130.444 17.1648 129.885 16.581 129.493 15.8267C129.101 15.0682 128.905 14.1712 128.905 13.1357C128.905 12.1257 129.101 11.2393 129.493 10.4766C129.885 9.71378 130.437 9.11932 131.149 8.69318C131.865 8.26705 132.704 8.05398 133.667 8.05398C134.315 8.05398 134.918 8.15838 135.476 8.36719C136.039 8.57173 136.529 8.88068 136.946 9.29403C137.368 9.70739 137.696 10.2273 137.931 10.8537C138.165 11.4759 138.282 12.2045 138.282 13.0398V13.7876H129.992V12.1001H135.719C135.719 11.7081 135.634 11.3608 135.463 11.0582C135.293 10.7557 135.056 10.5192 134.754 10.3487C134.456 10.174 134.108 10.0866 133.712 10.0866C133.299 10.0866 132.932 10.1825 132.613 10.3743C132.297 10.5618 132.05 10.8153 131.871 11.1349C131.692 11.4503 131.6 11.8018 131.596 12.1896V13.794C131.596 14.2798 131.686 14.6996 131.865 15.0533C132.048 15.407 132.306 15.6797 132.638 15.8714C132.971 16.0632 133.365 16.1591 133.821 16.1591C134.123 16.1591 134.4 16.1165 134.652 16.0312C134.903 15.946 135.118 15.8182 135.297 15.6477C135.476 15.4773 135.613 15.2685 135.706 15.0213L138.225 15.1875C138.097 15.7926 137.835 16.321 137.439 16.7727C137.047 17.2202 136.539 17.5696 135.917 17.821C135.299 18.0682 134.586 18.1918 133.776 18.1918ZM144.495 18.1918C143.49 18.1918 142.625 17.9787 141.9 17.5526C141.18 17.1222 140.626 16.5256 140.238 15.7628C139.855 15 139.663 14.1222 139.663 13.1293C139.663 12.1236 139.857 11.2415 140.245 10.483C140.637 9.72017 141.193 9.12571 141.913 8.69957C142.633 8.26918 143.49 8.05398 144.483 8.05398C145.339 8.05398 146.089 8.20952 146.733 8.5206C147.376 8.83168 147.885 9.26847 148.26 9.83097C148.635 10.3935 148.842 11.054 148.88 11.8125H146.311C146.238 11.3224 146.047 10.9283 145.735 10.63C145.429 10.3274 145.026 10.1761 144.527 10.1761C144.105 10.1761 143.737 10.2912 143.422 10.5213C143.11 10.7472 142.868 11.0774 142.693 11.5121C142.518 11.9467 142.431 12.473 142.431 13.0909C142.431 13.7173 142.516 14.25 142.686 14.6889C142.861 15.1278 143.106 15.4624 143.422 15.6925C143.737 15.9226 144.105 16.0376 144.527 16.0376C144.838 16.0376 145.118 15.9737 145.365 15.8459C145.616 15.718 145.823 15.5327 145.985 15.2898C146.151 15.0426 146.26 14.7464 146.311 14.4013H148.88C148.838 15.1513 148.633 15.8118 148.267 16.3828C147.904 16.9496 147.404 17.3928 146.765 17.7124C146.125 18.032 145.369 18.1918 144.495 18.1918ZM153.347 12.3239V18H150.624V4.90909H153.27V9.91406H153.385C153.607 9.33452 153.965 8.88068 154.459 8.55256C154.953 8.22017 155.573 8.05398 156.319 8.05398C157.001 8.05398 157.595 8.20312 158.102 8.50142C158.614 8.79545 159.01 9.21946 159.291 9.77344C159.577 10.3232 159.718 10.9815 159.713 11.7486V18H156.99V12.2344C156.994 11.6293 156.841 11.1584 156.53 10.8217C156.223 10.4851 155.793 10.3168 155.239 10.3168C154.868 10.3168 154.54 10.3956 154.254 10.5533C153.973 10.7109 153.752 10.9411 153.59 11.2436C153.432 11.5419 153.351 11.902 153.347 12.3239Z" fill="white"/>
</g>
<defs>
<clipPath id="clip0_51_54">
<rect width="165" height="22" fill="white"/>
</clipPath>
</defs>
</svg>
