<svg width="644" height="32" viewBox="0 0 644 32" fill="none" xmlns="http://www.w3.org/2000/svg">
<mask id="mask0_45_96" style="mask-type:luminance" maskUnits="userSpaceOnUse" x="0" y="0" width="644" height="32">
<path d="M644 0H0V31.1111H644V0Z" fill="white"/>
</mask>
<g mask="url(#mask0_45_96)">
<path d="M0 12.4445C0 8.08848 0 5.9105 0.847727 4.24674C1.59341 2.78326 2.78326 1.59341 4.24674 0.847727C5.9105 0 8.08848 0 12.4444 0H631.555C635.911 0 638.089 0 639.753 0.847727C641.217 1.59341 642.407 2.78326 643.152 4.24674C644 5.9105 644 8.08848 644 12.4444V31.1111H0V12.4445Z" fill="#25334D"/>
<mask id="mask1_45_96" style="mask-type:luminance" maskUnits="userSpaceOnUse" x="556" y="5" width="76" height="20">
<path d="M631.556 5.44458H556.889V24.1113H631.556V5.44458Z" fill="white"/>
</mask>
<g mask="url(#mask1_45_96)">
<path d="M566.229 16.6239C566.557 16.6239 566.828 16.353 566.828 16.0305V9.54144L566.783 8.58679L567.176 9.05767L568.079 10.0188C568.182 10.1349 568.33 10.1929 568.478 10.1929C568.775 10.1929 569.02 9.98007 569.02 9.6769C569.02 9.51564 568.955 9.39953 568.846 9.28988L566.686 7.20641C566.532 7.0516 566.383 7 566.229 7C566.067 7 565.926 7.0516 565.771 7.20641L563.605 9.28988C563.496 9.39953 563.431 9.51564 563.431 9.6769C563.431 9.98007 563.67 10.1929 563.966 10.1929C564.114 10.1929 564.269 10.1349 564.372 10.0188L565.275 9.05767L565.674 8.58034L565.623 9.54144V16.0305C565.623 16.353 565.893 16.6239 566.229 16.6239ZM562.509 21.7778H569.935C571.334 21.7778 572.056 21.0553 572.056 19.675V13.3343C572.056 11.9539 571.334 11.2314 569.935 11.2314H568.195V12.5151H569.851C570.438 12.5151 570.773 12.8247 570.773 13.4439V19.5589C570.773 20.1781 570.438 20.4877 569.851 20.4877H562.593C562 20.4877 561.672 20.1781 561.672 19.5589V13.4439C561.672 12.8247 562 12.5151 562.593 12.5151H564.269V11.2314H562.509C561.117 11.2314 560.389 11.9474 560.389 13.3343V19.675C560.389 21.0553 561.117 21.7778 562.509 21.7778Z" fill="#B7B7B7"/>
<path d="M593.444 20.2222C593.854 20.2222 594.186 19.8895 594.186 19.512V15.5071H598.154C598.551 15.5071 598.889 15.1808 598.889 14.7777C598.889 14.3811 598.551 14.0484 598.154 14.0484H594.186V10.0434C594.186 9.65954 593.854 9.33325 593.444 9.33325C593.041 9.33325 592.703 9.65954 592.703 10.0434V14.0484H588.735C588.351 14.0484 588 14.3811 588 14.7777C588 15.1808 588.351 15.5071 588.735 15.5071H592.703V19.512C592.703 19.8895 593.041 20.2222 593.444 20.2222Z" fill="#B7B7B7"/>
<path d="M617.344 18.6938H618.44V19.6675C618.44 21.0475 619.169 21.7698 620.562 21.7698H627.101C628.493 21.7698 629.222 21.0475 629.222 19.6675V13.0834C629.222 11.7034 628.493 10.9812 627.101 10.9812H626.004V10.0139C626.004 8.63387 625.276 7.91162 623.883 7.91162H617.344C615.944 7.91162 615.222 8.63387 615.222 10.0139V16.5915C615.222 17.978 615.944 18.6938 617.344 18.6938ZM617.428 17.4105C616.834 17.4105 616.505 17.1009 616.505 16.4754V10.13C616.505 9.50444 616.834 9.20135 617.428 9.20135H623.799C624.386 9.20135 624.721 9.50444 624.721 10.13V10.9812H620.562C619.169 10.9812 618.44 11.7034 618.44 13.0834V17.4105H617.428ZM620.645 20.48C620.052 20.48 619.73 20.1705 619.73 19.5514V13.1995C619.73 12.5804 620.052 12.2709 620.645 12.2709H627.017C627.61 12.2709 627.939 12.5804 627.939 13.1995V19.5514C627.939 20.1705 627.61 20.48 627.017 20.48H620.645Z" fill="#B7B7B7"/>
</g>
<mask id="mask2_45_96" style="mask-type:luminance" maskUnits="userSpaceOnUse" x="74" y="5" width="77" height="20">
<path d="M150.889 5.44458H74.6665V24.1113H150.889V5.44458Z" fill="white"/>
</mask>
<g mask="url(#mask2_45_96)">
<path d="M78.3463 21.4H89.3928C90.7937 21.4 91.5233 20.677 91.5233 19.2953V11.4382C91.5233 10.0566 90.7937 9.3335 89.3928 9.3335H78.3463C76.9517 9.3335 76.2222 10.0501 76.2222 11.4382V19.2953C76.2222 20.677 76.9517 21.4 78.3463 21.4ZM78.4302 20.1153C77.8362 20.1153 77.507 19.8054 77.507 19.1791V11.5544C77.507 10.9281 77.8362 10.6183 78.4302 10.6183H81.3742V20.1153H78.4302ZM89.3088 10.6183C89.9028 10.6183 90.2321 10.9281 90.2321 11.5544V19.1791C90.2321 19.8054 89.9028 20.1153 89.3088 20.1153H82.5944V10.6183H89.3088ZM80.1088 12.9812C80.3412 12.9812 80.5349 12.7811 80.5349 12.5616C80.5349 12.342 80.3412 12.1484 80.1088 12.1484H78.7853C78.5529 12.1484 78.3592 12.342 78.3592 12.5616C78.3592 12.7811 78.5529 12.9812 78.7853 12.9812H80.1088ZM80.1088 14.7179C80.3412 14.7179 80.5349 14.5242 80.5349 14.2983C80.5349 14.0788 80.3412 13.8851 80.1088 13.8851H78.7853C78.5529 13.8851 78.3592 14.0788 78.3592 14.2983C78.3592 14.5242 78.5529 14.7179 78.7853 14.7179H80.1088ZM80.1088 16.4482C80.3412 16.4482 80.5349 16.2609 80.5349 16.035C80.5349 15.8155 80.3412 15.6282 80.1088 15.6282H78.7853C78.5529 15.6282 78.3592 15.8155 78.3592 16.035C78.3592 16.2609 78.5529 16.4482 78.7853 16.4482H80.1088Z" fill="#B7B7B7"/>
<path d="M116.199 20.2953L111.471 15.6712C111.307 15.5071 111.222 15.3248 111.222 15.1121C111.222 14.8995 111.307 14.705 111.477 14.547L116.205 9.92901C116.339 9.79533 116.509 9.72241 116.703 9.72241C117.11 9.72241 117.426 10.0384 117.426 10.4394C117.426 10.6338 117.347 10.8222 117.207 10.962L112.954 15.1061L117.207 19.2623C117.347 19.4021 117.426 19.5844 117.426 19.7849C117.426 20.1859 117.11 20.5019 116.703 20.5019C116.509 20.5019 116.339 20.429 116.199 20.2953Z" fill="#B7B7B7"/>
<path d="M139.556 20.5019C139.757 20.5019 139.921 20.429 140.061 20.2953L144.788 15.6773C144.952 15.5071 145.037 15.3309 145.037 15.1121C145.037 14.8995 144.958 14.7111 144.788 14.5531L140.061 9.92901C139.921 9.79533 139.757 9.72241 139.556 9.72241C139.149 9.72241 138.833 10.0384 138.833 10.4394C138.833 10.6338 138.918 10.8222 139.052 10.962L143.312 15.1182L139.052 19.2623C138.912 19.4082 138.833 19.5844 138.833 19.7849C138.833 20.1859 139.149 20.5019 139.556 20.5019Z" fill="#5A5A5A"/>
</g>
<mask id="mask3_45_96" style="mask-type:luminance" maskUnits="userSpaceOnUse" x="15" y="10" width="41" height="11">
<path d="M56.0001 10.8889H15.5557V20.2222H56.0001V10.8889Z" fill="white"/>
</mask>
<g mask="url(#mask3_45_96)">
<path d="M20.2223 20.2223C22.7997 20.2223 24.889 18.1329 24.889 15.5556C24.889 12.9783 22.7997 10.8889 20.2223 10.8889C17.645 10.8889 15.5557 12.9783 15.5557 15.5556C15.5557 18.1329 17.645 20.2223 20.2223 20.2223Z" fill="#ED6A5E"/>
<path d="M20.2221 19.8334C22.5847 19.8334 24.4999 17.9182 24.4999 15.5556C24.4999 13.1931 22.5847 11.2778 20.2221 11.2778C17.8596 11.2778 15.9443 13.1931 15.9443 15.5556C15.9443 17.9182 17.8596 19.8334 20.2221 19.8334Z" stroke="black" stroke-opacity="0.1" stroke-width="0.777778"/>
<path d="M35.778 20.2223C38.3553 20.2223 40.4447 18.1329 40.4447 15.5556C40.4447 12.9783 38.3553 10.8889 35.778 10.8889C33.2007 10.8889 31.1113 12.9783 31.1113 15.5556C31.1113 18.1329 33.2007 20.2223 35.778 20.2223Z" fill="#F4BD50"/>
<path d="M35.7778 19.8334C38.1403 19.8334 40.0556 17.9182 40.0556 15.5556C40.0556 13.1931 38.1403 11.2778 35.7778 11.2778C33.4152 11.2778 31.5 13.1931 31.5 15.5556C31.5 17.9182 33.4152 19.8334 35.7778 19.8334Z" stroke="black" stroke-opacity="0.1" stroke-width="0.777778"/>
<path d="M51.3337 20.2223C53.911 20.2223 56.0003 18.1329 56.0003 15.5556C56.0003 12.9783 53.911 10.8889 51.3337 10.8889C48.7563 10.8889 46.667 12.9783 46.667 15.5556C46.667 18.1329 48.7563 20.2223 51.3337 20.2223Z" fill="#61C454"/>
<path d="M51.3334 19.8334C53.696 19.8334 55.6112 17.9182 55.6112 15.5556C55.6112 13.1931 53.696 11.2778 51.3334 11.2778C48.9709 11.2778 47.0557 13.1931 47.0557 15.5556C47.0557 17.9182 48.9709 19.8334 51.3334 19.8334Z" stroke="black" stroke-opacity="0.1" stroke-width="0.777778"/>
</g>
<path d="M220.889 21.7777C221.005 21.7777 221.178 21.7387 221.339 21.6477C225.046 19.614 226.333 18.6719 226.333 16.3068V11.4013C226.333 10.6216 226.031 10.3422 225.387 10.0628C224.673 9.75744 222.272 8.91278 221.571 8.67238C221.359 8.6009 221.108 8.55542 220.889 8.55542C220.67 8.55542 220.419 8.6139 220.207 8.67238C219.505 8.87379 217.105 9.76394 216.39 10.0628C215.747 10.3357 215.444 10.6216 215.444 11.4013V16.3068C215.444 18.6719 216.738 19.601 220.432 21.6477C220.599 21.7387 220.773 21.7777 220.889 21.7777ZM221.236 9.8679C222.079 10.2058 223.914 10.862 224.879 11.2064C225.059 11.2779 225.104 11.3753 225.104 11.6092V16.0664C225.104 17.9702 224.158 18.4835 221.256 20.2508C221.075 20.3612 220.985 20.4002 220.895 20.4002V9.79643C220.985 9.79643 221.082 9.81592 221.236 9.8679Z" fill="#B7B7B7"/>
<mask id="mask4_45_96" style="mask-type:luminance" maskUnits="userSpaceOnUse" x="234" y="4" width="176" height="23">
<path d="M409.889 4.66675H234.111V26.4445H409.889V4.66675Z" fill="white"/>
</mask>
<g mask="url(#mask4_45_96)">
<path d="M234.111 12.1334C234.111 9.51983 234.111 8.21304 234.62 7.21479C235.067 6.3367 235.781 5.62279 236.659 5.17538C237.657 4.66675 238.964 4.66675 241.578 4.66675H402.422C405.036 4.66675 406.343 4.66675 407.341 5.17538C408.219 5.62279 408.933 6.3367 409.38 7.21479C409.889 8.21304 409.889 9.51983 409.889 12.1334V18.9778C409.889 21.5914 409.889 22.8982 409.38 23.8965C408.933 24.7745 408.219 25.4885 407.341 25.9359C406.343 26.4445 405.036 26.4445 402.422 26.4445H241.578C238.964 26.4445 237.657 26.4445 236.659 25.9359C235.781 25.4885 235.067 24.7745 234.62 23.8965C234.111 22.8982 234.111 21.5914 234.111 18.9778V12.1334Z" fill="#3C5175"/>
<mask id="mask5_45_96" style="mask-type:luminance" maskUnits="userSpaceOnUse" x="395" y="10" width="11" height="12">
<path d="M405.611 10.1113H395.5V21.0002H405.611V10.1113Z" fill="white"/>
</mask>
<g mask="url(#mask5_45_96)">
<path d="M400.423 15.3477C400.556 15.3477 400.66 15.3067 400.742 15.2201L402.611 13.3379C402.711 13.2377 402.757 13.1283 402.757 13.0007C402.757 12.8777 402.707 12.7592 402.611 12.668L400.742 10.7676C400.66 10.6765 400.556 10.6309 400.423 10.6309C400.177 10.6309 399.981 10.836 399.981 11.0866C399.981 11.2097 400.027 11.31 400.104 11.3965L401.194 12.4629C400.979 12.431 400.761 12.4128 400.542 12.4128C398.286 12.4128 396.481 14.2175 396.481 16.4779C396.481 18.7383 398.3 20.5567 400.556 20.5567C402.816 20.5567 404.63 18.7383 404.63 16.4779C404.63 16.2045 404.438 16.0085 404.165 16.0085C403.901 16.0085 403.723 16.2045 403.723 16.4779C403.723 18.237 402.315 19.6498 400.556 19.6498C398.801 19.6498 397.388 18.237 397.388 16.4779C397.388 14.7051 398.787 13.3015 400.542 13.3015C400.838 13.3015 401.112 13.3243 401.353 13.3653L400.109 14.5958C400.027 14.6778 399.981 14.7781 399.981 14.9011C399.981 15.1517 400.177 15.3477 400.423 15.3477Z" fill="#E3E3E3"/>
</g>
<path d="M248 10.1667C246.392 10.1667 245.083 11.4751 245.083 13.0834V14.8334H244.5C243.857 14.8334 243.333 15.3566 243.333 16.0001V20.6667C243.333 21.3101 243.857 21.8334 244.5 21.8334H251.5C252.143 21.8334 252.667 21.3101 252.667 20.6667V16.0001C252.667 15.3566 252.143 14.8334 251.5 14.8334H250.917V13.0834C250.917 11.4751 249.608 10.1667 248 10.1667ZM251.5 16.0001L251.501 20.6667H244.5V16.0001H251.5ZM246.25 14.8334V13.0834C246.25 12.1186 247.035 11.3334 248 11.3334C248.965 11.3334 249.75 12.1186 249.75 13.0834V14.8334H246.25Z" fill="white"/>
</g>
</g>
</svg>
