<svg width="525" height="302" viewBox="0 0 525 302" fill="none" xmlns="http://www.w3.org/2000/svg">
<path d="M524.16 293.86C505.094 298.67 493.3 294.071 482.719 278.309L407.469 175.024L396.593 160.724L308.714 278.65C298.673 292.836 288.141 299.011 269.402 293.99L381.932 144.133L277.166 8.7702C295.184 5.2927 307.633 7.06395 318.689 23.0702L396.74 127.639L475.364 23.639C485.438 9.45271 496.265 4.0577 514.348 9.2902L473.726 62.7202L418.689 133.814C412.137 141.939 413.038 147.496 419.066 155.345L524.16 293.86ZM0.13104 141.63L9.3366 96.7152C34.398 7.82771 137.101 -29.1085 207.928 25.8165C249.32 58.1215 259.607 103.816 257.559 155.004H24.2424C20.7371 247.141 87.5839 302.749 172.809 274.376C202.702 264.415 220.311 241.194 229.123 212.139C233.595 197.579 240.999 195.304 254.791 199.464C247.747 235.799 231.859 266.154 198.28 285.15C148.108 313.588 76.4946 304.39 38.8206 264.87C16.38 241.941 7.10892 212.886 2.9484 181.816C2.2932 176.681 0.9828 171.79 0 166.866C0.08736 158.46 0.13104 150.053 0.13104 141.646V141.63ZM24.6683 135.455H235.512C234.136 68.8302 192.318 21.5102 135.168 21.104C72.4324 20.6165 27.3874 66.8152 24.6683 135.455Z" fill="white"/>
</svg>
